<?xml version="1.0" encoding="UTF-8"?>
<svg width="50px" height="50px" viewBox="0 0 1234 1234" version="1.1" xmlns="http://www.w3.org/2000/svg"
     xmlns:xlink="http://www.w3.org/1999/xlink">
    <!-- Generator: Sketch 52.5 (67469) - http://www.bohemiancoding.com/sketch -->
    <title>Artboard</title>
    <desc>Created with Sketch.</desc>
    <g id="Artboard" stroke="none" stroke-width="1" fill="none" fill-rule="evenodd">
        <rect fill="#FFFFFF" x="0" y="0" width="1234" height="1234"></rect>
        <g id="Group" transform="translate(278.000000, 148.000000)" fill="#123262">
            <path d="M69.0420489,752.898876 L69.0420489,582.337079 L16.6116208,582.337079 C12.7182722,582.337079 10.9013761,583.88764 10.9013761,588.022472 L10.9013761,600.685393 L0,600.685393 L0,585.955056 C0,575.359551 3.37423547,572 14.016055,572 L135.228976,572 C145.870795,572 149.245031,575.359551 149.245031,585.955056 L149.245031,600.685393 L138.343654,600.685393 L138.343654,588.022472 C138.343654,583.88764 136.526758,582.337079 132.63341,582.337079 L80.2029817,582.337079 L80.2029817,752.898876 L69.0420489,752.898876 Z M164.558869,688.550562 C164.558869,644.876404 194.407875,620.58427 227.631116,620.58427 C262.93081,620.58427 280.580657,648.235955 280.580657,679.505618 C280.580657,682.348315 280.061544,686.483146 280.061544,686.483146 L175.979358,686.483146 C175.979358,723.955056 201.415902,745.404494 231.524465,745.404494 C256.441896,745.404494 271.755734,729.123596 271.755734,729.123596 L277.725535,738.168539 C277.725535,738.168539 259.556575,756 231.524465,756 C194.926988,756 164.558869,729.640449 164.558869,688.550562 Z M176.758028,676.404494 L269.160168,676.404494 C267.862385,644.876404 248.914755,630.662921 227.37156,630.662921 C203.492355,630.662921 181.430046,646.168539 176.758028,676.404494 Z M306.017202,752.898876 L306.017202,744.11236 L384.662844,645.651685 C389.334862,639.707865 394.78555,633.764045 394.78555,633.764045 L394.78555,633.247191 C394.78555,633.247191 390.113532,633.764045 381.548165,633.764045 L323.147936,633.764045 C319.514144,633.764045 317.437691,635.573034 317.437691,639.449438 L317.437691,650.561798 L306.795872,650.561798 L306.795872,638.674157 C306.795872,628.078652 311.208333,623.685393 321.850153,623.685393 L409.580275,623.685393 L409.580275,632.47191 L330.675076,730.932584 C326.003058,736.876404 320.292813,742.820225 320.292813,742.820225 L320.292813,743.337079 C320.292813,743.337079 325.224388,742.820225 333.789755,742.820225 L398.678899,742.820225 C402.312691,742.820225 404.389144,741.011236 404.389144,737.134831 L404.389144,726.022472 L415.030963,726.022472 L415.030963,737.910112 C415.030963,748.505618 410.618502,752.898876 399.976682,752.898876 L306.017202,752.898876 Z M433.719037,687.516854 C433.719037,649.786517 463.827599,620.58427 500.94419,620.58427 C538.06078,620.58427 568.169343,649.786517 568.169343,687.516854 C568.169343,726.022472 538.06078,756 500.94419,756 C463.827599,756 433.719037,726.022472 433.719037,687.516854 Z M445.139526,687.516854 C445.139526,720.337079 470.056957,745.404494 500.94419,745.404494 C531.831422,745.404494 556.748853,720.337079 556.748853,687.516854 C556.748853,655.47191 531.831422,631.179775 500.94419,631.179775 C470.056957,631.179775 445.139526,655.47191 445.139526,687.516854 Z M587.636086,733.775281 L595.422783,725.764045 C595.422783,725.764045 608.919725,745.404494 635.654052,745.404494 C652.265673,745.404494 667.579511,737.134831 667.579511,721.11236 C667.579511,688.550562 592.827217,695.786517 592.827217,654.179775 C592.827217,631.955056 611.515291,620.58427 637.211391,620.58427 C648.372324,620.58427 673.808869,625.494382 673.808869,642.550562 L673.808869,652.370787 L662.907492,652.370787 L662.907492,646.168539 C662.907492,635.314607 646.814985,631.179775 637.730505,631.179775 C616.706422,631.179775 604.247706,638.674157 604.247706,653.404494 C604.247706,686.483146 679,678.47191 679,721.11236 C679,741.786517 660.05237,756 635.394495,756 C602.690367,756 587.636086,733.775281 587.636086,733.775281 Z" id="Tezos"></path>
            <path d="M101.617452,897.411517 L101.617452,831.188202 C101.617452,828.723315 100.310688,827.573034 98.0238527,827.573034 L91,827.573034 L91,821 L99.1672705,821 C105.864432,821 108.641304,823.793539 108.641304,830.530899 L108.641304,896.918539 C108.641304,917.787921 121.872283,931.098315 142.61715,931.098315 C163.362017,931.098315 176.756341,917.787921 176.756341,896.589888 L176.756341,830.530899 C176.756341,823.793539 179.533213,821 186.230374,821 L194.397645,821 L194.397645,827.573034 L187.373792,827.573034 C185.086957,827.573034 183.780193,828.723315 183.780193,831.188202 L183.780193,897.411517 C183.780193,921.896067 167.118961,938 142.780495,938 C118.442029,938 101.617452,921.896067 101.617452,897.411517 Z M214.48913,936.02809 L214.48913,830.859551 C214.48913,828.394663 213.182367,827.244382 210.895531,827.244382 L203.871679,827.244382 L203.871679,821 L211.875604,821 C218.572766,821 221.349638,823.793539 221.349638,830.530899 L221.349638,886.401685 L230.823671,886.401685 C234.09058,886.401685 238.33756,885.087079 240.787742,882.129213 L263.819444,853.865169 L272.966787,853.865169 L248.138285,883.608146 C243.891304,888.537921 241.931159,889.195225 241.931159,889.195225 L241.931159,889.523876 C241.931159,889.523876 244.217995,890.509831 246.831522,895.275281 L263.98279,926.004213 C265.616244,928.962079 267.086353,929.783708 271.82337,929.783708 L275.743659,929.783708 L275.743659,936.02809 L271.496679,936.02809 C262.676027,936.02809 260.715882,934.549157 256.632246,927.31882 L239.317633,896.261236 C237.520833,892.974719 233.273853,892.481742 230.17029,892.481742 L221.349638,892.481742 L221.349638,936.02809 L214.48913,936.02809 Z M292.241546,936.02809 L292.241546,863.724719 C292.241546,861.259831 290.934783,860.109551 288.647947,860.109551 L281.624094,860.109551 L281.624094,853.865169 L289.628019,853.865169 C296.325181,853.865169 299.102053,856.658708 299.102053,862.90309 L299.102053,868.654494 C299.102053,872.433989 298.775362,875.391854 298.775362,875.391854 L299.102053,875.391854 C303.185688,862.738764 312.006341,853.207865 324.910628,853.207865 C327.360809,853.207865 329.647645,853.700843 329.647645,853.700843 L329.647645,860.602528 C329.647645,860.602528 327.6875,860.273876 325.8907,860.273876 C313.149758,860.273876 305.145833,871.119382 301.552234,883.279494 C299.755435,889.030899 299.102053,895.110955 299.102053,900.533708 L299.102053,936.02809 L292.241546,936.02809 Z M340.265097,914.172753 C340.265097,886.23736 376.364432,885.908708 390.902174,885.908708 L396.292572,885.908708 L396.292572,884.758427 C396.292572,865.203652 389.595411,858.301966 372.607488,858.301966 C368.360507,858.301966 354.476147,859.452247 354.476147,866.353933 L354.476147,871.941011 L347.61564,871.941011 L347.61564,864.382022 C347.61564,854.686798 366.073671,851.893258 372.770833,851.893258 C397.762681,851.893258 403.15308,865.532303 403.15308,882.950843 L403.15308,926.168539 C403.15308,928.633427 404.459843,929.783708 406.746679,929.783708 L413.770531,929.783708 L413.770531,936.02809 L405.766606,936.02809 C399.069444,936.02809 396.292572,933.398876 396.292572,926.004213 C396.292572,921.567416 396.619263,918.609551 396.619263,918.609551 L396.292572,918.609551 C396.455918,918.609551 389.26872,938 368.033816,938 C354.802838,938 340.265097,930.605337 340.265097,914.172753 Z M347.452295,913.679775 C347.452295,922.389045 354.476147,931.591292 368.360507,931.591292 C386.165157,931.591292 396.292572,913.022472 396.292572,896.754213 L396.292572,892.317416 L391.065519,892.317416 C377.181159,892.317416 347.452295,892.317416 347.452295,913.679775 Z M431.901872,832.995787 L431.901872,821 L439.415761,821 L439.415761,832.995787 L431.901872,832.995787 Z M432.881944,926.497191 L432.881944,863.724719 C432.881944,861.259831 431.575181,860.109551 429.288345,860.109551 L422.264493,860.109551 L422.264493,853.865169 L430.268418,853.865169 C436.96558,853.865169 439.742452,856.658708 439.742452,863.396067 L439.742452,926.168539 C439.742452,928.633427 441.049215,929.783708 443.336051,929.783708 L450.359903,929.783708 L450.359903,936.02809 L442.355978,936.02809 C435.658816,936.02809 432.881944,933.234551 432.881944,926.497191 Z M469.471316,936.02809 L469.471316,863.724719 C469.471316,861.259831 468.164553,860.109551 465.877717,860.109551 L458.853865,860.109551 L458.853865,853.865169 L466.85779,853.865169 C473.554952,853.865169 476.331824,856.658708 476.331824,862.90309 L476.331824,867.504213 C476.331824,871.283708 476.005133,874.241573 476.005133,874.241573 L476.331824,874.241573 C479.108696,866.518258 490.216184,851.893258 510.63436,851.893258 C531.869263,851.893258 537.586353,864.546348 537.586353,883.936798 L537.586353,926.168539 C537.586353,928.633427 538.893116,929.783708 541.179952,929.783708 L548.203804,929.783708 L548.203804,936.02809 L540.199879,936.02809 C533.502717,936.02809 530.725845,933.234551 530.725845,926.497191 L530.725845,886.401685 C530.725845,872.105337 528.929046,858.630618 510.63436,858.630618 C495.279891,858.630618 481.722222,869.476124 477.638587,884.758427 C476.658514,888.20927 476.331824,891.988764 476.331824,895.932584 L476.331824,936.02809 L469.471316,936.02809 Z M558.984601,895.110955 C558.984601,867.339888 577.769324,851.893258 598.677536,851.893258 C620.892512,851.893258 632,869.476124 632,889.359551 C632,891.167135 631.673309,893.796348 631.673309,893.796348 L566.1718,893.796348 C566.1718,917.623596 582.17965,931.26264 601.127717,931.26264 C616.808877,931.26264 626.446256,920.910112 626.446256,920.910112 L630.2032,926.661517 C630.2032,926.661517 618.769022,938 601.127717,938 C578.096014,938 558.984601,921.238764 558.984601,895.110955 Z M566.661836,887.38764 L624.812802,887.38764 C623.996075,867.339888 612.07186,858.301966 598.514191,858.301966 C583.486413,858.301966 569.602053,868.161517 566.661836,887.38764 Z" id="Ukraine"></path>
            <path d="M391.921977,513 C355.004604,513 328.097165,504.376609 311.199661,486.579399 C294.302157,468.782189 286.128907,450.159335 286.128907,429.609979 C286.128907,422.362661 287.506421,415.940987 290.72062,410.895386 C293.475648,405.849785 297.516356,401.813305 302.56724,399.061159 C307.618125,396.309013 313.954689,394.474249 321.30143,394.474249 C328.648171,394.474249 334.984735,395.850322 340.035619,399.061159 C345.086504,401.813305 349.127211,405.849785 351.882239,410.895386 C354.637267,415.940987 356.473952,422.270923 356.473952,429.609979 C356.473952,438.69206 354.178095,446.031116 350.045554,451.44367 C345.913012,456.947961 340.49479,460.984442 334.525563,462.819206 C339.576448,469.607833 347.749697,474.653433 358.677974,477.86427 C369.606252,481.075107 380.534529,482.45118 391.55464,482.45118 C407.07463,482.45118 420.757936,478.322961 433.063727,470.158262 C445.369518,461.993562 454.46111,449.700644 460.430337,433.738197 C466.399564,417.775751 469.062757,399.611588 469.062757,379.062232 C469.062757,356.76985 465.848558,338.055258 459.511994,322.551502 C453.083596,306.589056 443.992004,294.754828 431.686213,287.507511 C419.380422,279.801502 406.156288,276.131974 391.55464,276.131974 C382.003877,276.131974 370.616428,280.260193 356.473952,287.966202 L330.760359,300.25912 L330.760359,287.507511 L447.022535,132.653433 L286.128907,132.653433 L286.128907,293.470494 C286.128907,306.680794 288.883935,317.597639 294.761328,326.312768 C300.730555,334.936159 309.822147,339.064378 321.668767,339.064378 C331.21953,339.064378 339.943785,335.853541 348.576205,329.523605 C357.208626,323.101931 364.555367,315.395923 370.891931,306.772532 C371.810274,304.937768 372.728616,303.561695 373.646959,303.103004 C375.024473,302.185622 375.942816,301.726931 377.32033,301.726931 C379.616186,301.726931 381.912043,302.644313 385.034408,304.937768 C387.789435,308.148605 389.166949,311.726395 389.166949,315.854614 C389.166949,317.689378 388.248607,320.441524 387.789435,324.019313 C381.361037,339.064378 372.269445,350.439914 360.422825,358.145923 C348.576205,365.851931 335.811243,369.98015 321.668767,369.98015 C286.588079,369.98015 262.803005,363.191524 249.1197,349.522532 C235.895566,335.853541 229.09983,317.138948 229.09983,293.929185 L229.09983,132.653433 L147,132.653433 L147,102.563305 L229.559002,102.563305 L229.559002,34.2183476 L210.824812,15.5037554 L210.824812,0 L265.558032,0 L286.037073,10.4581545 L286.037073,102.104614 L499.000727,101.645923 L519.938939,122.562232 L389.626121,253.380901 C397.340199,250.170064 405.605282,248.3353 414.237703,247.417918 C428.380179,247.417918 444.359341,252.004828 461.624182,261.08691 C479.440029,269.7103 493.123334,282.003219 502.674097,297.506974 C512.224861,313.01073 518.653259,327.597103 521.408287,341.724785 C524.163315,355.852468 526,368.145386 526,379.520923 C526,404.565451 520.489944,427.775215 510.020838,449.241953 C499.551732,470.616953 483.572571,487.03809 461.716016,497.496245 C440.226799,507.954399 416.992731,513 391.921977,513 Z" id="Path"></path>
        </g>
    </g>
</svg>
